<svg width="85" height="16" viewBox="0 0 85 16" fill="none" xmlns="http://www.w3.org/2000/svg">
<path d="M0 15.8195V0.180451H9.02256V2.04511H1.98496V7.7193H8.30075V9.54386H1.98496V15.8195H0Z" fill="white"/>
<path d="M12.1593 15.8195V0.180451H17.1718C19.9789 0.180451 22.5052 1.64411 22.5052 4.91228C22.5052 7.3985 20.9212 8.92231 18.8761 9.46366L23.0666 15.8195H20.841L16.7909 9.68421H14.1443V15.8195H12.1593ZM14.1443 7.89975H17.1718C18.9964 7.89975 20.5002 6.81704 20.5002 4.93233C20.5002 2.98747 18.9964 2.00501 17.1718 2.00501H14.1443V7.89975Z" fill="white"/>
<path d="M35.7707 15.8195L34.6278 12.391H27.911L26.7882 15.8195H24.7832L30.0363 0.180451H32.5226L37.7757 15.8195H35.7707ZM28.5125 10.5865H34.0263L31.2594 2.22556L28.5125 10.5865Z" fill="white"/>
<path d="M40.7268 15.8195V0.180451H43.1328L49.188 12.8521L55.203 0.180451H57.609V15.8195H55.6441V3.26817L49.6692 15.8195H48.6466L42.6917 3.32832V15.8195H40.7268Z" fill="white"/>
<path d="M61.6189 15.8195V0.180451H70.7417V2.02506H63.6039V7.03759H69.8996V8.80201H63.6039V13.9749H70.7417V15.8195H61.6189Z" fill="white"/>
<path d="M78.8648 16C76.0979 16 73.8523 14.5965 73.3711 11.8897L75.2758 11.5689C75.6568 13.5539 77.4413 14.2957 78.9049 14.2556C80.5691 14.2356 82.0127 13.213 82.0127 11.589C82.0127 10.0451 80.8899 9.38346 79.2458 8.82206L76.9601 8.06015C74.9951 7.3985 73.7921 6.15539 73.7921 4.21053C73.7921 2.08521 75.5766 0 78.6844 0C81.4312 0 83.336 1.56391 83.6568 3.82957L81.732 4.09023C81.4914 2.52632 80.1681 1.72431 78.6242 1.72431C76.9601 1.72431 75.7971 2.70677 75.7971 4.07018C75.7971 5.23308 76.519 5.93484 77.8623 6.41604L80.0678 7.198C82.6142 8.10025 84.0378 9.38346 84.0378 11.5088C84.0378 13.7143 82.3736 16 78.8648 16Z" fill="white"/>
</svg>
