<svg width="205" height="175" viewBox="0 0 205 175" fill="none" xmlns="http://www.w3.org/2000/svg">
<g clip-path="url(#clip0_458_965)">
<path d="M138.635 174.37C97.6453 174.37 72.7043 152.899 68.1499 122.102L121.719 114.295C123.02 125.139 130.828 129.042 137.334 129.042C143.623 129.042 148.178 125.356 148.178 120.15C148.178 115.162 143.407 112.56 134.948 110.391L113.261 104.752C87.4521 98.0289 69.4512 84.7993 69.4512 56.3883C69.4512 22.9891 95.6934 0 136.466 0C177.023 0 197.192 23.4228 201.096 49.4482L149.479 56.6052C148.829 49.882 144.708 43.5925 136.033 43.5925C129.526 43.5925 125.406 47.2794 125.406 51.4001C125.406 55.7377 128.876 58.3402 134.515 59.8584L157.937 66.1478C195.891 76.3411 205 96.7276 205 117.765C205 145.959 184.397 174.37 138.635 174.37Z" fill="white"/>
</g>
<defs>
<clipPath id="clip0_458_965">
<rect width="205" height="174.37" fill="white"/>
</clipPath>
</defs>
</svg>
