<svg width="1380" height="175" viewBox="0 0 1380 175" fill="none" xmlns="http://www.w3.org/2000/svg">
<path d="M0 174.373V0H111.554V52.3119H58.1243V75.1145H107.083V121.39H58.1243V174.373H0Z" fill="white"/>
<path d="M235 174.373V0H307.879C345.213 0 376.063 19.2257 376.063 57.9008C376.063 80.0327 366.45 95.2345 351.696 104.624L383.217 174.373H320.622L295.583 116.025H293.124V174.373H235ZM293.124 71.5376H303.184C311.009 71.5376 317.268 68.1843 317.268 60.1363C317.268 52.3119 310.785 48.9586 303.184 48.9586H293.124V71.5376Z" fill="white"/>
<path d="M580.883 174.373L575.965 152.241H534.384L529.466 174.373H470L516.499 0H594.073L640.573 174.373H580.883ZM543.326 111.778H567.023L554.951 58.5714L543.326 111.778Z" fill="white"/>
<path d="M705 174.373V0H776.538L807.612 86.5158L838.462 0H910V174.373H851.876V90.5398L822.59 174.373H792.857L763.124 90.3162V174.373H705Z" fill="white"/>
<path d="M940 174.373V0H1051.55V48.5115H998.124V66.3959H1044.62V106.859H998.124V125.862H1051.55V174.373H940Z" fill="white"/>
<path d="M1313.63 174.373C1272.64 174.373 1247.7 152.902 1243.15 122.104L1296.72 114.297C1298.02 125.141 1305.83 129.045 1312.33 129.045C1318.62 129.045 1323.18 125.358 1323.18 120.153C1323.18 115.164 1318.41 112.562 1309.95 110.393L1288.26 104.754C1262.45 98.0306 1244.45 84.8008 1244.45 56.3893C1244.45 22.9895 1270.69 0 1311.47 0C1352.02 0 1372.19 23.4232 1376.1 49.449L1324.48 56.6061C1323.83 49.8828 1319.71 43.5932 1311.03 43.5932C1304.53 43.5932 1300.4 47.2802 1300.4 51.401C1300.4 55.7386 1303.87 58.3412 1309.51 59.8594L1332.94 66.1489C1370.89 76.3424 1380 96.7293 1380 117.767C1380 145.961 1359.4 174.373 1313.63 174.373Z" fill="white"/>
</svg>
