<svg width="300" height="300" viewBox="0 0 300 300" fill="none" xmlns="http://www.w3.org/2000/svg">
<g clip-path="url(#clip0_127_79)">
<path fill-rule="evenodd" clip-rule="evenodd" d="M300 0V15H158.282C165.778 86.6499 226.366 142.5 300 142.5V157.5C263.348 157.5 229.93 171.339 204.681 194.074L300 289.394V300H289.394L194.074 204.681C171.339 229.93 157.5 263.348 157.5 300H142.5C142.5 263.348 128.661 229.93 105.925 204.681L10.6064 300H0V289.393L95.3184 194.074C70.0695 171.339 36.6515 157.5 0 157.5V142.5C73.6344 142.5 134.222 86.6499 141.718 15H0V0H300ZM116.546 194.06C131.514 210.517 143.043 230.157 150 251.845C156.957 230.157 168.485 210.517 183.453 194.06L150 160.606L116.546 194.06ZM150 48.1543C134.522 96.4076 96.4076 134.522 48.1543 150C69.8422 156.957 89.4824 168.485 105.939 183.453L150 139.394L194.06 183.453C210.517 168.485 230.157 156.957 251.845 150C203.592 134.522 165.478 96.4073 150 48.1543Z" fill="white"/>
</g>
<defs>
<clipPath id="clip0_127_79">
<rect width="300" height="300" fill="white"/>
</clipPath>
</defs>
</svg>
