<svg width="82" height="5" viewBox="0 0 82 5" fill="none" xmlns="http://www.w3.org/2000/svg">
<path d="M1.25794 0.0157496C5.16503 0.647478 7.99687 0.749844 9.82825 0.398562C11.9323 -0.00581971 14.0344 -0.10251 16.1251 0.117312C18.0979 0.324721 20.0779 0.483436 22.0626 0.586062C24.0087 0.686607 25.9561 0.616878 27.8986 0.39075C29.9991 0.146585 32.1006 0.232658 34.1954 0.64075C36.0596 1.00368 37.9293 0.992491 39.8126 0.6095C41.9808 0.16815 44.1405 0.251862 46.2736 0.851687C48.1412 1.37703 50.0185 1.55796 51.9064 1.39856C53.9387 1.22697 55.9673 1.12787 57.9923 1.10169C60.0491 1.07514 62.1004 1.21537 64.1407 1.53137C66.0384 1.82543 67.9508 1.86998 69.8751 1.65637C71.9596 1.4247 74.0374 1.42577 76.1017 1.65637C77.1045 1.76849 77.9267 1.8752 78.5548 1.97669C78.8536 2.02499 79.1316 2.07083 79.3751 2.12512L79.9923 2.30481L80.0392 2.32044L80.5001 2.53137C80.9599 2.64159 81.2914 3.05007 81.2657 3.53919C81.2368 4.09022 80.7698 4.51269 80.2189 4.4845L80.1173 4.47669L79.9298 4.46887L79.7579 4.39075L79.2579 4.15637V4.16419C79.1541 4.12399 78.8444 4.04398 78.2345 3.94544C77.6524 3.85139 76.8702 3.75113 75.8829 3.64075C73.9676 3.42661 72.0404 3.42547 70.1017 3.64075C68.0021 3.87411 65.9105 3.82939 63.8361 3.50794C61.9057 3.20888 59.9681 3.07677 58.0236 3.10169C56.0456 3.12721 54.0566 3.22305 52.0704 3.39075C49.9404 3.57014 47.8267 3.36203 45.7345 2.77356C43.9068 2.25944 42.0673 2.1926 40.2111 2.57044C38.0726 3.00527 35.9376 3.01552 33.8126 2.60169C31.9165 2.23231 30.02 2.16234 28.1251 2.38294C26.0731 2.62172 24.0181 2.68445 21.9611 2.57825C19.9408 2.47379 17.9225 2.32066 15.9142 2.1095C14.0247 1.9109 12.1251 1.99191 10.2111 2.3595C8.03273 2.77816 4.93138 2.63392 0.992312 2.00012H0.9845C0.968878 1.99987 0.953059 1.99327 0.937625 1.99231L0.945437 1.9845C0.411944 1.95523 -0.00830164 1.52329 0.000124522 0.9845C0.00911 0.432506 0.463832 -0.00850684 1.01575 0.000124568H1.18762L1.25794 0.0157496Z" fill="#FF0000"/>
</svg>
