<svg width="86" height="4" viewBox="0 0 86 4" fill="none" xmlns="http://www.w3.org/2000/svg">
<path d="M69.8282 0.422812C71.899 0.0551824 73.9754 -0.0736547 76.0548 0.0399995C78.1164 0.1527 80.1512 0.443985 82.1563 0.914999C82.759 1.05656 83.2539 1.13681 83.6407 1.20406L83.5548 0.766562L84.8048 0.789999L84.9063 0.797812C85.4579 0.808676 85.8929 1.26193 85.8829 1.81344C85.8818 1.87338 85.855 1.92847 85.8438 1.98531L85.8751 2.11031L85.8673 2.23531C85.8475 2.63998 85.6168 2.93165 85.3751 3.09469C85.1715 3.23165 84.9602 3.28525 84.836 3.30562C84.5788 3.34735 84.2882 3.33213 84.0235 3.30562C83.4654 3.2497 82.6779 3.09891 81.6954 2.86812C79.8055 2.42432 77.8893 2.14627 75.9454 2.04C74.0201 1.93477 72.0943 2.05002 70.172 2.39156C68.088 2.76163 65.9992 2.85046 63.9063 2.65719C61.9553 2.47702 60.0101 2.45688 58.0704 2.58687C56.0992 2.71903 54.1247 2.91419 52.1485 3.17281C50.0268 3.45055 47.9004 3.3303 45.7813 2.82125C43.9304 2.37669 42.0857 2.37745 40.2423 2.81344C38.1189 3.3151 35.9856 3.38508 33.8517 3.02437C31.9476 2.70222 30.046 2.67305 28.1485 2.93062C26.0939 3.2095 24.0361 3.30449 21.9767 3.2275C19.9555 3.15192 17.9351 3.02078 15.922 2.82906C14.0275 2.64892 12.1246 2.74707 10.211 3.12594C8.0454 3.55461 4.97034 3.41543 1.06259 2.79781H0.984465C0.433248 2.78924 -0.00721459 2.33356 8.95445e-05 1.78219C0.00774405 1.22996 0.463483 0.790157 1.01571 0.797812H1.18759L1.2579 0.805624C5.16549 1.43035 7.99285 1.52619 9.8204 1.165C11.921 0.749106 14.0246 0.637581 16.1173 0.836874C18.0913 1.02481 20.0729 1.15339 22.0548 1.2275C23.9977 1.29993 25.9424 1.20967 27.8829 0.946249C29.9799 0.661924 32.0802 0.692932 34.1798 1.04781C36.0495 1.36416 37.9212 1.3021 39.7892 0.860312C41.9376 0.352906 44.0969 0.358706 46.2501 0.875937C48.1354 1.32871 50.0105 1.43314 51.8829 1.18844C53.9014 0.92422 55.9231 0.721928 57.9376 0.586874C59.9835 0.449827 62.0384 0.475176 64.0938 0.664999C66.0067 0.84135 67.9194 0.761954 69.8282 0.422812Z" fill="#FF0000"/>
</svg>
