<svg width="93" height="5" viewBox="0 0 93 5" fill="none" xmlns="http://www.w3.org/2000/svg">
<path d="M39.751 0.406001C41.9022 -0.127093 44.0637 -0.135521 46.2198 0.382564C48.1086 0.836761 49.991 0.956977 51.8682 0.734126C53.8909 0.494011 55.9175 0.326798 57.9463 0.241939C60.0066 0.155838 62.0649 0.248072 64.1182 0.515376C66.0294 0.764076 67.9458 0.764047 69.8682 0.515376C71.9515 0.245957 74.0301 0.220865 76.1026 0.437251C78.1499 0.651137 80.1898 1.02042 82.212 1.55444C84.0915 2.05058 85.9839 2.27017 87.8917 2.20288C88.892 2.16759 89.6748 2.1327 90.2432 2.10131C90.527 2.08564 90.753 2.06846 90.9229 2.05444C91.0063 2.04755 91.0748 2.04458 91.126 2.03881C91.1397 2.03726 91.1545 2.03234 91.1651 2.031L91.5088 1.94506L91.6573 1.91381L91.8135 1.92163H91.9151C92.4653 1.95491 92.8846 2.43355 92.8526 2.98413C92.8228 3.4743 92.4414 3.8347 91.9698 3.89038L91.6417 3.97631L91.5792 3.99194C91.3492 4.0348 90.9099 4.07053 90.3526 4.10131C89.7649 4.13376 88.967 4.16742 87.962 4.20288C85.8545 4.27721 83.7629 4.03769 81.6963 3.49194C79.7732 2.98416 77.8414 2.62463 75.8995 2.42163C73.9827 2.22138 72.0569 2.25014 70.126 2.49975C68.0338 2.77039 65.9431 2.77074 63.8604 2.49975C61.9206 2.24723 59.9771 2.1608 58.0323 2.24194C56.0545 2.32467 54.0749 2.48436 52.1026 2.7185C49.9852 2.96974 47.8642 2.83603 45.751 2.32788C43.9077 1.88514 42.0739 1.89605 40.2354 2.35131C38.1147 2.87693 35.9797 2.97863 33.8448 2.66381C31.9448 2.3837 30.0497 2.4024 28.1573 2.7185C26.109 3.06091 24.058 3.23671 22.0088 3.24194C19.9974 3.24692 17.9761 3.20364 15.9542 3.10913C14.0503 3.02031 12.1543 3.21905 10.2667 3.70288C8.12171 4.25206 5.02934 4.2925 1.07135 3.91381L1.04791 3.92163C0.496434 3.94753 0.0271758 3.52002 0.00103258 2.9685C-0.023828 2.41783 0.403258 1.94774 0.954158 1.92163H1.05572L1.12603 1.91381L1.19635 1.92163C5.13232 2.30201 7.96612 2.22887 9.77447 1.76538C11.8505 1.23344 13.9421 1.01085 16.0479 1.10913C18.0373 1.20212 20.0226 1.24684 22.001 1.24194C23.9407 1.23714 25.8857 1.07463 27.8292 0.749751C29.9263 0.399534 32.0289 0.377168 34.1338 0.687251C36.0071 0.963487 37.8791 0.869953 39.751 0.406001Z" fill="#FF0000"/>
</svg>
