<svg width="1024" height="1024" viewBox="0 0 1024 1024" fill="none" xmlns="http://www.w3.org/2000/svg">
<path fill-rule="evenodd" clip-rule="evenodd" d="M802 280H547.472C573.847 396.231 677.788 483 802 483V541C740.375 541 683.739 562.359 639.088 598.077L802 760.988L760.987 802L598.077 639.088C562.359 683.739 541 740.375 541 802H483C483 740.374 461.639 683.739 425.921 639.088L263.012 802L222 760.988L384.91 598.077C340.259 562.36 283.625 541 222 541V483C346.212 483 450.153 396.231 476.528 280H222V222H802V280ZM467.139 597.871C485.045 619.352 500.182 643.22 512 668.932C523.817 643.221 538.952 619.351 556.857 597.871L512 553.012L467.139 597.871ZM512 355.066C480.18 424.3 424.3 480.18 355.066 512C380.778 523.817 404.647 538.953 426.127 556.859L512 470.988L597.871 556.859C619.351 538.953 643.22 523.817 668.932 512C599.699 480.18 543.82 424.299 512 355.066Z" fill="#D14D41"/>
</svg>
