<svg width="1024" height="1024" viewBox="0 0 1024 1024" fill="none" xmlns="http://www.w3.org/2000/svg">
<path fill-rule="evenodd" clip-rule="evenodd" d="M802 280H547.472C573.847 396.231 677.788 483 802 483V541C740.375 541 683.739 562.359 639.088 598.077L802 760.988L760.987 802L598.077 639.088C562.359 683.739 541 740.375 541 802H483C483 740.374 461.639 683.739 425.921 639.088L263.012 802L222 760.988L384.91 598.077C340.259 562.36 283.625 541 222 541V483C346.212 483 450.153 396.231 476.528 280H222V222H802V280ZM467.139 597.871C485.045 619.352 500.182 643.22 512 668.932C523.817 643.221 538.952 619.351 556.857 597.871L512 553.012L467.139 597.871ZM512 355.066C480.18 424.3 424.3 480.18 355.066 512C380.778 523.817 404.647 538.953 426.127 556.859L512 470.988L597.871 556.859C619.351 538.953 643.22 523.817 668.932 512C599.699 480.18 543.82 424.299 512 355.066Z" fill="#808080"/>
<path d="M0.000330575 0.000330575V1024H1024V0.000330575H0.000330575ZM1024 651C1024 665.24 1024 679.48 1023.92 693.73C1023.85 705.73 1023.71 717.72 1023.39 729.71C1022.68 755.84 1021.14 782.2 1016.5 808.05C1011.79 834.27 1004.1 858.67 991.97 882.49C980.05 905.9 964.48 927.33 945.9 945.9C927.32 964.47 905.9 980.05 882.49 991.97C858.67 1004.09 834.27 1011.79 808.05 1016.5C782.21 1021.15 755.85 1022.68 729.71 1023.39C717.72 1023.72 705.72 1023.85 693.73 1023.92C679.49 1024.01 665.25 1024 651 1024H373C358.76 1024 344.52 1024 330.27 1023.92C318.27 1023.85 306.28 1023.71 294.29 1023.39C268.16 1022.68 241.8 1021.14 215.95 1016.5C189.73 1011.79 165.33 1004.1 141.51 991.97C118.1 980.05 96.6703 964.48 78.1003 945.9C59.5303 927.32 43.9503 905.9 32.0303 882.49C19.9103 858.67 12.2103 834.27 7.50033 808.05C2.85033 782.21 1.32033 755.85 0.610331 729.71C0.280331 717.72 0.150331 705.72 0.0803306 693.73C-0.00966939 679.49 0.000330575 665.25 0.000330575 651V373C0.000330575 358.76 0.00033062 344.52 0.0803306 330.27C0.150331 318.27 0.290331 306.28 0.610331 294.29C1.32033 268.16 2.86033 241.8 7.50033 215.95C12.2103 189.73 19.9003 165.33 32.0303 141.51C43.9503 118.1 59.5203 96.6703 78.1003 78.1003C96.6803 59.5303 118.1 43.9503 141.51 32.0303C165.33 19.9103 189.73 12.2103 215.95 7.50033C241.79 2.85033 268.15 1.32033 294.29 0.610331C306.28 0.280331 318.28 0.150331 330.27 0.0803306C344.51 -0.00966939 358.75 0.000330575 373 0.000330575H651C665.24 0.000330575 679.48 0.00033062 693.73 0.0803306C705.73 0.150331 717.72 0.290331 729.71 0.610331C755.84 1.32033 782.2 2.86033 808.05 7.50033C834.27 12.2103 858.67 19.9003 882.49 32.0303C905.9 43.9503 927.33 59.5203 945.9 78.1003C964.47 96.6803 980.05 118.1 991.97 141.51C1004.09 165.33 1011.79 189.73 1016.5 215.95C1021.15 241.79 1022.68 268.15 1023.39 294.29C1023.72 306.28 1023.85 318.28 1023.92 330.27C1024.01 344.51 1024 358.75 1024 373V651Z" fill="#1E1E1E"/>
</svg>
