<svg width="300" height="300" viewBox="0 0 300 300" fill="none" xmlns="http://www.w3.org/2000/svg">
<path fill-rule="evenodd" clip-rule="evenodd" d="M300 30H168.348C181.99 90.1194 235.753 135 300 135V165C268.125 165 238.83 176.048 215.735 194.522L300 278.787L278.786 300L194.522 215.735C176.048 238.83 165 268.125 165 300H135C135 268.125 123.951 238.83 105.477 215.735L21.2129 300L0 278.787L84.2637 194.522C61.1687 176.048 31.875 165 0 165V135C64.2474 135 118.01 90.1194 131.652 30H0V0H300V30ZM126.796 194.416C136.058 205.527 143.887 217.872 150 231.172C156.112 217.873 163.94 205.526 173.202 194.416L150 171.213L126.796 194.416ZM150 68.8271C133.541 104.638 104.638 133.541 68.8271 150C82.1264 156.112 94.4724 163.941 105.583 173.203L150 128.787L194.416 173.203C205.527 163.941 217.873 156.112 231.172 150C195.362 133.541 166.459 104.638 150 68.8271Z" fill="#808080"/>
</svg>
