<svg width="79" height="5" viewBox="0 0 79 5" fill="none" xmlns="http://www.w3.org/2000/svg">
<path d="M78.3209 4.13358C73.8281 3.72325 69.3373 3.27486 64.8451 2.91555C62.0982 2.69863 59.346 2.58316 56.5963 2.4849C54.0689 2.39421 51.5401 2.32888 49.0104 2.34839C44.9076 2.38136 40.8003 2.3757 36.7047 2.5877C25.7355 3.14866 14.7738 3.81647 3.80827 4.43298C3.0132 4.47927 2.17123 4.67417 1.43846 4.39916C0.888942 4.19184 0.24257 3.44482 0.064829 2.7576C-0.211246 1.68768 0.434206 1.23702 1.24775 1.21364C5.87387 1.06709 10.5015 0.890963 15.1304 0.753164C23.7619 0.492549 32.3919 0.197809 41.0253 0.0265565C44.8421 -0.0495297 48.6699 0.0410298 52.4847 0.257798C53.7747 0.33315 55.0643 0.416962 56.358 0.484158C57.4687 0.543132 58.5947 1.13435 59.6704 0.982033C61.2739 0.754777 62.7672 1.72352 64.2843 1.52234C66.3223 1.25408 68.2217 2.0943 70.1945 2.27022C72.2685 2.45116 74.345 2.6493 76.4142 2.92323C77.0876 3.01446 77.7413 3.36294 78.404 3.59759C78.3786 3.77364 78.353 3.95391 78.3274 4.13418L78.3209 4.13358Z" fill="#FF0000"/>
</svg>
