<svg width="130" height="49" viewBox="0 0 130 49" fill="none" xmlns="http://www.w3.org/2000/svg">
<path d="M50.9375 41.8796C51.7039 41.6468 52.4621 41.27 53.2326 41.2035C60.0442 40.6493 66.8763 40.3889 73.6674 39.5632C78.9872 38.9148 84.2742 37.7012 89.553 36.5375C95.6105 35.202 101.705 34.016 107.664 32.0931C113.098 30.3364 118.594 28.5354 123.541 24.7283C124.152 24.2573 124.754 23.7696 125.341 23.2487C128.529 20.4004 127.73 16.8925 125.402 14.2713C122.398 10.891 118.693 9.51112 114.967 8.30305C107.885 6.00329 100.684 4.81739 93.4301 4.09144C81.0979 2.8612 68.7698 2.7005 56.4171 3.5539C45.6218 4.29648 34.9372 6.11412 24.3427 8.90155C18.8303 10.3534 13.3671 12.1988 8.31375 15.618C6.63748 16.754 5.07188 18.3389 3.67431 20.0457C1.94477 22.1626 2.06773 24.8724 3.67022 27.211C6.34649 31.1178 9.88754 33.1183 13.3753 35.1798C19.8672 39.0146 26.6583 41.6357 33.5765 43.5864C37.5397 44.7002 41.5685 45.3763 45.5603 46.2851C46.5317 46.5068 47.4866 46.8559 48.5235 47.1718C43.7529 49.6046 39.0725 47.9144 34.4372 46.9058C27.9043 45.4816 21.5066 43.2428 15.3631 39.8458C10.7113 37.2745 6.14567 34.4483 2.34642 29.8765C-1.32168 25.4598 -0.358548 19.752 2.95709 16.222C7.78915 11.0738 13.6171 8.85167 19.5312 7.11715C22.7198 6.18062 25.9124 5.26072 29.1256 4.50152C32.3306 3.74786 35.5561 3.16599 38.7815 2.61183C39.5684 2.47329 40.3922 2.7282 40.8389 2.767C41.8267 2.48437 42.5152 2.29042 43.1996 2.08538C44.2406 1.78059 45.4128 1.8083 46.3554 1.79168C47.7489 1.76397 49.1629 0.339781 50.6957 1.63651C51.2736 2.12417 52.4047 1.34281 53.29 1.24306C55.5523 0.982603 57.8188 0.760936 60.0852 0.555897C62.5156 0.339775 64.95 0.0571533 67.3845 0.00173736C68.8477 -0.0315122 70.3108 0.422902 71.778 0.472776C72.8805 0.511567 73.9871 0.134743 75.0896 0.15691C76.8888 0.190159 78.6839 0.461692 80.4831 0.506025C81.6307 0.533733 82.8684 -0.092465 83.9135 0.300988C86.6554 1.32618 89.4177 0.74986 92.1596 0.988149C95.508 1.27631 98.8605 1.67531 102.188 2.26826C109.644 3.5927 117.14 4.81739 124.029 9.30608C125.361 10.1761 126.652 11.3786 127.697 12.7862C131.041 17.3026 130.324 23.3319 126.263 26.6069C120.804 31.007 114.828 33.4841 108.672 35.141C100.774 37.269 92.8194 39.0201 84.9053 41.0483C77.4954 42.9491 70.0239 43.8635 62.4951 43.797C59.0196 43.7637 55.5482 43.2206 52.0728 42.8715C51.6998 42.8327 51.3432 42.5501 50.9785 42.3783C50.9662 42.2121 50.9539 42.0458 50.9416 41.8796H50.9375Z" fill="#FF0000"/>
</svg>
