<svg width="128" height="46" viewBox="0 0 128 46" fill="none" xmlns="http://www.w3.org/2000/svg">
<path d="M3.02557 23.9949C0.334337 23.3378 0.0188181 21.0575 0.000257899 18.8895C-0.0229424 16.0701 1.52218 14.0481 3.41069 12.8686C6.98817 10.6389 10.6074 8.28561 14.4355 6.89833C19.753 4.97749 25.2514 3.67445 30.7313 2.52868C35.6219 1.50086 40.5822 0.79319 45.5377 0.394419C50.6186 -0.00996867 55.7366 -0.0886215 60.8267 0.0911064C66.9377 0.31015 73.0532 0.810019 79.1456 1.46153C83.15 1.88839 87.1312 2.69716 91.0984 3.4947C96.8521 4.65732 102.634 5.70761 108.308 7.29146C113.631 8.77421 118.758 11.1388 123.087 15.3736C126.595 18.7997 128.442 23.4277 127.393 28.7802C126.813 31.7401 125.138 33.6721 123.013 34.7112C119.138 36.5983 115.194 38.4237 111.153 39.6481C102.063 42.4114 92.7317 43.3606 83.4191 44.4221C69.7031 45.9835 55.9593 45.7982 42.2108 45.6353C33.0699 45.5286 23.9615 44.6861 14.9691 42.6642C12.2314 42.0464 9.33604 41.6307 7.02529 39.3504C6.71905 39.0471 6.32001 38.7719 6.17617 38.3732C5.96737 37.789 5.77248 37.0364 5.91633 36.4916C5.99985 36.1827 6.81649 35.9019 7.22481 36.0142C8.88131 36.4692 10.4868 37.2162 12.1525 37.6037C15.1547 38.3058 18.1753 38.9123 21.2053 39.3954C25.0797 40.0132 28.9588 40.5805 32.8518 40.9455C36.1602 41.2544 39.4917 41.3274 42.8094 41.3611C48.5677 41.4229 54.3306 41.4398 60.0889 41.3443C65.4621 41.2544 70.8399 41.1196 76.2038 40.7714C79.837 40.5355 83.4516 39.884 87.0755 39.4459C89.7574 39.1201 92.4579 38.9685 95.1213 38.5023C98.1884 37.9688 101.204 36.8623 104.276 36.5871C107.018 36.34 109.705 35.8289 112.266 34.8179C115.797 33.425 119.301 31.8075 122.628 29.8248C124.395 28.7689 125.713 25.2249 124.145 22.31C121.983 18.2886 118.818 15.8061 115.287 14.4244C109.376 12.116 103.348 10.0548 97.2511 8.65626C86.6579 6.2187 75.9254 4.72474 65.142 4.32597C57.9499 4.05637 50.7253 4.15186 43.5425 4.67981C34.2485 5.37064 25.0194 7.01627 16.1616 10.6782C12.6398 12.1329 9.30355 14.2784 5.93488 16.2442C5.09503 16.7328 4.37118 17.6371 3.74941 18.5132C3.02093 19.5411 2.34812 20.67 2.98381 22.2201C3.16941 22.675 3.01165 23.3322 3.01165 24.0005L3.02557 23.9949Z" fill="#FF0000"/>
</svg>
