<svg width="108" height="52" viewBox="0 0 108 52" fill="none" xmlns="http://www.w3.org/2000/svg">
<path d="M37.0908 51.1048C28.7931 51.1161 20.6152 49.3356 12.5297 46.574C9.53448 45.5533 6.53581 43.8578 3.80414 41.6009C-0.645941 37.9263 -1.20734 31.4278 2.20211 25.2696C4.21834 21.6291 6.7412 19.0773 9.39413 17.0472C13.1356 14.1779 16.9285 11.4163 20.8308 9.23314C24.1581 7.36751 27.66 6.34114 31.1003 5.0369C33.2637 4.22033 35.434 3.34139 37.6316 2.90475C42.9169 1.85002 48.2091 0.783953 53.5184 0.194211C59.3822 -0.457907 65.1742 0.540117 70.8977 3.0692C72.9653 3.98217 75.2382 3.60224 77.4188 3.81205C78.4902 3.91412 79.5617 4.00485 80.6331 4.11259C81.7764 4.23167 82.9266 4.27704 84.0631 4.52087C87.0378 5.15031 90.0193 5.72871 92.9735 6.58497C97.3551 7.85518 101.521 10.1858 104.992 15.0058C108.747 20.2227 108.227 26.5908 104.588 31.1046C101.056 35.488 96.9067 37.365 92.8024 39.4631C86.8461 42.5139 80.7495 44.5042 74.581 45.8028C66.6975 47.4586 58.8072 49.0691 50.8997 50.2826C46.323 50.9857 41.7017 50.8553 37.101 51.1048H37.0908ZM47.5245 4.73636C47.5142 4.59459 47.5074 4.44716 47.4971 4.30539C45.5391 4.52087 43.5536 4.49252 41.623 5.00287C35.3929 6.64735 29.1593 8.26347 23.1175 11.4787C17.8835 14.263 12.6975 17.2287 8.06595 22.2358C6.29961 24.1468 4.62912 26.415 3.13663 28.8874C1.45929 31.6603 1.74683 34.7622 3.6501 37.0134C4.32446 37.8129 5.03647 38.6579 5.8101 39.0775C8.82931 40.6936 11.8451 42.3551 14.9225 43.6196C21.6182 46.3642 28.4679 47.3112 35.3381 47.572C39.6992 47.7365 44.0774 47.4586 48.435 47.039C53.7033 46.5343 58.9783 45.9332 64.2157 44.9012C69.9392 43.7671 75.6387 42.2303 81.3246 40.6085C87.2124 38.93 93.0112 36.5257 98.5156 32.63C100.6 31.1557 102.548 28.9725 104.355 26.6759C105.786 24.8613 105.838 22.6611 104.821 20.2171C104.239 18.8164 103.486 17.5462 102.685 16.4745C99.9773 12.8396 96.7047 11.2122 93.398 9.96464C86.7194 7.45257 79.9245 6.40351 73.0851 6.06328C71.798 6.0009 70.5075 5.91584 69.2272 5.71737C66.5332 5.30909 63.8529 4.66831 61.1554 4.39612C58.612 4.14094 56.0584 4.26003 53.5081 4.16363C53.0631 4.14662 52.6078 3.66462 52.1765 3.73833C50.6224 3.99351 49.0786 4.39045 47.5313 4.73069L47.5245 4.73636Z" fill="#FF0000"/>
</svg>
